<svg width="24" height="24" viewBox="0 0 24 24" fill="none" xmlns="http://www.w3.org/2000/svg">
<path d="M7 17C5.61133 17 4.43067 16.5143 3.458 15.543C2.48533 14.5717 1.99933 13.3923 2 12.005C2.00067 10.6177 2.48667 9.436 3.458 8.46C4.43067 7.48667 5.61133 7 7 7H17C18.3887 7 19.5693 7.48567 20.542 8.457C21.5147 9.42833 22.0007 10.6077 22 11.995C21.9993 13.3823 21.5133 14.5637 20.542 15.539C19.5693 16.513 18.3887 17 17 17H7ZM7 16H17C18.1 16 19.0417 15.6083 19.825 14.825C20.6083 14.0417 21 13.1 21 12C21 10.9 20.6083 9.95833 19.825 9.175C19.0417 8.39167 18.1 8 17 8H7C5.9 8 4.95833 8.39167 4.175 9.175C3.39167 9.95833 3 10.9 3 12C3 13.1 3.39167 14.0417 4.175 14.825C4.95833 15.6083 5.9 16 7 16ZM16.998 14.5C17.6913 14.5 18.2817 14.2573 18.769 13.772C19.2563 13.2867 19.5 12.6967 19.5 12.002C19.5 11.3073 19.2573 10.717 18.772 10.231C18.2867 9.745 17.6967 9.50133 17.002 9.5C16.3073 9.49867 15.717 9.74167 15.231 10.229C14.745 10.7163 14.5013 11.306 14.5 11.998C14.4987 12.69 14.7417 13.2803 15.229 13.769C15.7163 14.2577 16.306 14.5013 16.998 14.5Z" fill="#666A76"/>
</svg>
