<svg width="16" height="16" viewBox="0 0 16 16" fill="none" xmlns="http://www.w3.org/2000/svg">
<g clip-path="url(#clip0_21_8)">
<path d="M9.5 5C9.5 4.80109 9.57902 4.61032 9.71967 4.46967C9.86032 4.32902 10.0511 4.25 10.25 4.25H15.25C15.4489 4.25 15.6397 4.32902 15.7803 4.46967C15.921 4.61032 16 4.80109 16 5C16 5.19891 15.921 5.38968 15.7803 5.53033C15.6397 5.67098 15.4489 5.75 15.25 5.75H10.25C10.0511 5.75 9.86032 5.67098 9.71967 5.53033C9.57902 5.38968 9.5 5.19891 9.5 5ZM15.25 7.25H10.25C10.0511 7.25 9.86032 7.32902 9.71967 7.46967C9.57902 7.61032 9.5 7.80109 9.5 8C9.5 8.19891 9.57902 8.38968 9.71967 8.53033C9.86032 8.67098 10.0511 8.75 10.25 8.75H15.25C15.4489 8.75 15.6397 8.67098 15.7803 8.53033C15.921 8.38968 16 8.19891 16 8C16 7.80109 15.921 7.61032 15.7803 7.46967C15.6397 7.32902 15.4489 7.25 15.25 7.25ZM15.25 10.25H11.75C11.5511 10.25 11.3603 10.329 11.2197 10.4697C11.079 10.6103 11 10.8011 11 11C11 11.1989 11.079 11.3897 11.2197 11.5303C11.3603 11.671 11.5511 11.75 11.75 11.75H15.25C15.4489 11.75 15.6397 11.671 15.7803 11.5303C15.921 11.3897 16 11.1989 16 11C16 10.8011 15.921 10.6103 15.7803 10.4697C15.6397 10.329 15.4489 10.25 15.25 10.25ZM9.72625 11.8125C9.75087 11.9079 9.75647 12.0072 9.74272 12.1047C9.72897 12.2022 9.69615 12.2961 9.64612 12.381C9.59609 12.4658 9.52984 12.54 9.45115 12.5992C9.37246 12.6585 9.28287 12.7016 9.1875 12.7262C9.09213 12.7509 8.99284 12.7565 8.8953 12.7427C8.79777 12.729 8.7039 12.6961 8.61905 12.6461C8.5342 12.5961 8.46003 12.5298 8.40079 12.4512C8.34154 12.3725 8.29837 12.2829 8.27375 12.1875C7.91625 10.7981 6.50875 9.75 5 9.75C3.49125 9.75 2.08375 10.7975 1.72625 12.1875C1.70163 12.2829 1.65846 12.3725 1.59921 12.4512C1.53997 12.5298 1.4658 12.5961 1.38095 12.6461C1.2961 12.6961 1.20223 12.729 1.1047 12.7427C1.00716 12.7565 0.907873 12.7509 0.812501 12.7262C0.717128 12.7016 0.627539 12.6585 0.548849 12.5992C0.470159 12.54 0.403909 12.4658 0.353882 12.381C0.303854 12.2961 0.271029 12.2022 0.25728 12.1047C0.243531 12.0072 0.249128 11.9079 0.273751 11.8125C0.610001 10.5063 1.52938 9.4275 2.71813 8.8125C2.25886 8.35989 1.9446 7.7809 1.81534 7.14917C1.68609 6.51745 1.74766 5.86156 1.99224 5.26493C2.23683 4.66831 2.65336 4.15792 3.18884 3.7987C3.72433 3.43949 4.35456 3.24768 4.99938 3.24768C5.64419 3.24768 6.27442 3.43949 6.80991 3.7987C7.3454 4.15792 7.76193 4.66831 8.00651 5.26493C8.25109 5.86156 8.31267 6.51745 8.18341 7.14917C8.05415 7.7809 7.73989 8.35989 7.28063 8.8125C8.47063 9.42813 9.39 10.5069 9.72625 11.8125ZM5 8.25C5.34612 8.25 5.68446 8.14736 5.97225 7.95507C6.26003 7.76278 6.48434 7.48947 6.61679 7.1697C6.74924 6.84993 6.7839 6.49806 6.71637 6.15859C6.64885 5.81913 6.48218 5.50731 6.23744 5.26256C5.9927 5.01782 5.68088 4.85115 5.34141 4.78363C5.00194 4.7161 4.65008 4.75076 4.3303 4.88321C4.01053 5.01566 3.73722 5.23997 3.54493 5.52775C3.35264 5.81554 3.25 6.15388 3.25 6.5C3.25 6.72981 3.29527 6.95738 3.38321 7.1697C3.47116 7.38202 3.60006 7.57493 3.76256 7.73744C4.09075 8.06563 4.53587 8.25 5 8.25Z" fill="#E4CCFF"/>
</g>
<defs>
<clipPath id="clip0_21_8">
<rect width="16" height="16" fill="white"/>
</clipPath>
</defs>
</svg>
